<?xml version="1.0" standalone="no"?>
<!DOCTYPE svg PUBLIC "-//W3C//DTD SVG 20010904//EN"
 "http://www.w3.org/TR/2001/REC-SVG-20010904/DTD/svg10.dtd">
<svg version="1.0" xmlns="http://www.w3.org/2000/svg"
 width="1084.000000pt" height="685.000000pt" viewBox="0 0 1084.000000 685.000000"
 preserveAspectRatio="xMidYMid meet">

<g transform="translate(0.000000,685.000000) scale(0.100000,-0.100000)"
fill="#000000" stroke="none">
<path d="M6374 6183 c-31 -60 -65 -122 -75 -139 -30 -51 -27 -54 61 -54 l80 0
90 135 c50 75 94 142 97 150 4 13 -12 15 -95 15 l-101 0 -57 -107z"/>
<path d="M8052 6278 c-5 -7 -42 -75 -82 -150 l-72 -138 85 0 84 0 92 138 c50
76 91 143 91 150 0 17 -184 17 -198 0z"/>
<path d="M5537 6233 c-4 -3 -7 -53 -7 -110 l0 -103 115 0 115 0 0 110 0 110
-108 0 c-60 0 -112 -3 -115 -7z"/>
<path d="M2923 6215 c-168 -47 -270 -161 -281 -314 -6 -94 17 -167 75 -231 56
-63 131 -99 298 -146 205 -58 245 -86 245 -175 0 -57 -32 -102 -95 -130 -89
-41 -313 -16 -460 50 l-65 30 0 -109 0 -110 38 -16 c131 -56 356 -79 489 -51
203 44 312 156 321 332 10 194 -87 292 -371 374 -195 56 -253 101 -244 189 5
49 26 76 82 105 83 43 314 18 444 -47 28 -14 53 -26 56 -26 3 0 5 48 5 106 l0
105 -43 19 c-87 39 -160 52 -302 56 -103 3 -154 0 -192 -11z"/>
<path d="M7009 6008 l-14 -123 -67 -3 -68 -3 0 -84 0 -85 65 0 65 0 0 -238 c0
-262 10 -328 57 -390 44 -58 100 -77 228 -76 72 0 124 6 150 16 l40 15 3 78 3
78 -28 -7 c-15 -3 -59 -9 -98 -12 -62 -6 -73 -4 -97 15 -15 12 -32 39 -38 59
-5 20 -10 132 -10 249 l0 212 118 3 117 3 3 83 3 82 -121 0 -120 0 0 125 0
125 -88 0 -89 0 -14 -122z"/>
<path d="M3963 5885 c-203 -55 -322 -220 -323 -447 0 -273 163 -440 430 -439
278 0 444 173 444 461 -1 181 -75 324 -203 389 -96 50 -242 64 -348 36z m216
-185 c88 -44 126 -131 119 -274 -3 -77 -8 -99 -33 -145 -41 -75 -89 -105 -174
-109 -54 -3 -74 1 -111 20 -92 47 -143 180 -121 315 22 141 96 212 219 213 43
0 75 -6 101 -20z"/>
<path d="M4995 5886 c-75 -20 -104 -33 -156 -72 -213 -156 -239 -537 -48 -708
116 -104 350 -135 505 -67 l44 20 0 82 c0 73 -2 80 -17 74 -152 -59 -303 -40
-380 49 -42 47 -57 97 -58 192 0 70 4 88 30 139 23 46 42 66 79 90 46 28 55
30 145 29 75 0 108 -5 149 -22 l52 -22 0 94 0 94 -47 17 c-64 22 -233 29 -298
11z"/>
<path d="M6250 5887 c-152 -44 -257 -161 -291 -325 -18 -87 -7 -255 21 -327
43 -112 149 -197 278 -224 115 -24 270 -6 380 44 88 40 92 46 92 137 0 43 -4
78 -9 78 -6 0 -25 -9 -43 -19 -106 -62 -296 -86 -383 -48 -69 31 -114 88 -128
165 l-6 32 294 0 295 0 0 50 c0 72 -27 196 -58 259 -34 73 -99 135 -170 162
-71 26 -207 35 -272 16z m198 -177 c35 -22 65 -77 76 -142 l7 -38 -184 0 -185
0 9 41 c17 74 55 126 109 148 45 18 132 13 168 -9z"/>
<path d="M7858 5881 c-149 -49 -237 -156 -274 -333 -39 -183 15 -373 134 -465
76 -58 142 -77 277 -77 131 -1 227 20 313 70 l42 25 0 84 c0 47 -2 85 -5 85
-3 0 -27 -11 -53 -24 -80 -41 -160 -60 -253 -60 -73 0 -93 4 -135 25 -55 28
-98 89 -110 152 l-6 37 297 0 297 0 -7 73 c-15 162 -58 271 -136 341 -63 56
-121 77 -234 82 -70 3 -103 0 -147 -15z m228 -181 c34 -32 63 -95 64 -137 l0
-33 -180 0 c-200 0 -191 -4 -165 71 19 53 40 80 86 109 49 31 156 25 195 -10z"/>
<path d="M5540 5450 l0 -430 105 0 105 0 0 430 0 430 -105 0 -105 0 0 -430z"/>
<path d="M10822 5671 c-33 -110 -198 -293 -355 -396 -110 -71 -293 -160 -455
-221 l-132 -49 2 -610 3 -610 32 -68 c37 -78 122 -169 219 -234 33 -23 134
-83 225 -134 278 -156 372 -227 441 -333 l38 -59 0 1376 c0 758 -2 1377 -3
1377 -2 0 -9 -17 -15 -39z"/>
<path d="M637 4593 c-4 -3 -7 -105 -7 -225 l0 -218 -49 34 c-171 117 -426 39
-525 -160 -73 -147 -75 -355 -5 -501 67 -139 236 -210 399 -169 63 16 167 76
177 103 9 24 21 14 27 -24 14 -76 9 -73 102 -73 l84 0 0 620 0 620 -98 0 c-54
0 -102 -3 -105 -7z m-122 -543 c47 -22 63 -35 93 -74 21 -27 22 -38 22 -191
l0 -162 -49 -46 c-113 -106 -273 -81 -329 52 -37 91 -34 249 7 330 50 97 161
137 256 91z"/>
<path d="M6970 4370 l0 -232 -40 35 c-113 96 -307 87 -437 -19 -151 -124 -203
-382 -121 -601 15 -41 38 -75 77 -114 72 -72 132 -94 251 -93 99 0 170 27 238
89 l41 36 11 -43 c6 -24 13 -49 15 -55 3 -9 30 -13 90 -13 l85 0 -2 618 -3
617 -102 3 -103 3 0 -231z m-113 -321 c24 -11 59 -39 78 -62 l35 -41 0 -157 0
-158 -32 -37 c-40 -46 -119 -84 -173 -84 -92 1 -173 72 -194 171 -25 113 -8
232 42 309 50 74 158 101 244 59z"/>
<path d="M3005 4566 c-133 -27 -226 -71 -310 -148 -75 -68 -129 -151 -162
-252 -24 -72 -27 -96 -27 -221 -1 -108 4 -154 18 -199 61 -201 192 -328 396
-383 50 -14 100 -18 220 -17 167 1 247 16 363 67 l57 26 0 295 0 296 -230 0
-230 0 0 -90 0 -90 115 0 115 0 0 -145 0 -145 -27 -7 c-16 -5 -84 -8 -153 -8
-117 0 -129 2 -188 29 -79 37 -152 114 -181 192 -50 133 -49 285 2 397 107
234 409 283 730 119 4 -2 7 46 7 107 l0 110 -31 16 c-98 51 -350 77 -484 51z"/>
<path d="M4115 4216 c-27 -12 -69 -42 -92 -65 l-41 -42 -12 56 -11 55 -105 0
c-117 0 -111 5 -92 -85 5 -27 13 -212 17 -410 l6 -360 105 0 105 0 5 298 5
299 30 24 c61 50 86 59 173 59 l82 0 0 98 0 97 -62 0 c-45 0 -77 -7 -113 -24z"/>
<path d="M4607 4225 c-32 -8 -82 -26 -112 -41 l-55 -25 0 -98 0 -98 58 29
c168 82 352 76 395 -13 8 -19 19 -59 23 -88 l7 -54 -33 7 c-228 45 -428 -19
-485 -158 -41 -98 -6 -245 73 -299 110 -76 307 -56 411 41 18 18 35 32 37 32
2 0 4 -12 4 -27 0 -72 2 -73 117 -73 105 0 105 0 98 23 -4 12 -10 157 -15 322
-8 330 -15 370 -70 437 -17 20 -56 49 -87 65 -52 25 -69 28 -183 30 -84 2
-144 -2 -183 -12z m263 -516 l51 -11 -3 -66 -3 -66 -55 -29 c-90 -46 -223 -36
-244 18 -14 39 -6 101 17 122 42 40 139 53 237 32z"/>
<path d="M5716 4216 c-32 -14 -80 -43 -106 -65 l-48 -40 -6 37 c-14 76 -7 72
-122 72 l-105 0 6 -32 c32 -187 35 -238 35 -525 l0 -303 105 0 105 0 0 299 0
299 35 31 c54 47 92 63 154 64 64 1 112 -20 138 -60 16 -24 19 -63 23 -328 l5
-300 105 0 105 0 0 325 c0 357 -3 379 -58 452 -50 65 -113 92 -222 96 -77 2
-99 -1 -149 -22z"/>
<path d="M1072 3888 c3 -247 8 -342 18 -368 43 -113 128 -172 257 -178 93 -5
167 18 244 74 32 24 60 40 62 36 3 -4 8 -26 12 -49 l7 -43 104 0 c120 0 111
-13 89 130 -11 68 -15 184 -15 413 l0 317 -110 0 -110 0 0 -303 c0 -302 0
-304 -22 -324 -69 -63 -188 -83 -253 -43 -60 37 -65 66 -65 385 l0 285 -111 0
-111 0 4 -332z"/>
<path d="M7948 2400 c-2 -795 0 -1471 5 -1504 10 -85 56 -172 127 -244 74 -74
171 -139 390 -262 91 -51 192 -112 225 -135 77 -55 157 -137 189 -195 l26 -45
-3 1475 -2 1475 -26 55 c-56 120 -170 213 -444 366 -306 169 -415 265 -465
407 -18 51 -19 28 -22 -1393z"/>
<path d="M5330 2815 l0 -116 113 3 112 3 0 110 0 110 -112 3 -113 3 0 -116z"/>
<path d="M2732 2303 l3 -598 113 -3 112 -3 0 199 0 199 138 6 c104 4 152 10
202 27 124 42 210 114 259 219 23 50 26 68 26 171 0 143 -20 195 -101 269
-102 94 -183 111 -510 111 l-244 0 2 -597z m457 396 c122 -26 185 -121 162
-245 -12 -63 -37 -94 -104 -128 -50 -25 -71 -29 -172 -34 l-115 -5 0 212 0
211 90 0 c49 0 112 -5 139 -11z"/>
<path d="M3972 2580 c-65 -12 -166 -46 -198 -67 -23 -14 -24 -21 -24 -110 0
-52 3 -93 8 -91 114 59 184 78 286 78 62 0 86 -4 111 -20 42 -26 65 -75 65
-138 l0 -49 -52 9 c-80 15 -233 4 -298 -21 -118 -45 -175 -125 -174 -246 0
-82 23 -134 78 -183 39 -34 119 -62 175 -62 88 1 208 47 255 99 28 31 35 26
38 -26 l3 -48 105 0 c88 0 104 2 101 15 -2 8 -7 152 -11 320 -6 256 -11 314
-26 360 -25 73 -82 131 -157 159 -68 25 -205 35 -285 21z m211 -526 l38 -7 -3
-71 -3 -71 -44 -24 c-58 -32 -164 -40 -209 -17 -41 21 -61 80 -42 125 12 31
41 55 75 64 30 7 145 8 188 1z"/>
<path d="M5048 2576 c-52 -14 -83 -32 -138 -82 l-38 -35 -12 56 -11 55 -105 0
c-117 0 -111 5 -92 -85 6 -27 13 -214 17 -415 l6 -365 105 0 105 0 3 297 2
296 33 28 c56 47 105 64 190 64 l77 0 0 94 c0 76 -3 95 -16 100 -24 9 -74 6
-126 -8z"/>
<path d="M6045 2583 c-183 -26 -305 -150 -293 -297 12 -136 100 -203 319 -241
51 -9 105 -23 121 -31 59 -31 60 -93 1 -131 -22 -15 -47 -18 -133 -17 -91 0
-117 5 -198 32 -51 18 -97 32 -103 32 -14 0 -11 -166 4 -178 35 -29 146 -55
259 -59 99 -5 127 -2 186 16 139 42 219 125 229 239 10 107 -31 183 -120 227
-30 14 -107 37 -173 50 -153 32 -199 63 -179 122 17 49 65 65 180 60 80 -3
113 -9 165 -31 109 -46 100 -51 100 53 l0 92 -35 15 c-79 33 -256 58 -330 47z"/>
<path d="M5335 2558 c-3 -7 -4 -202 -3 -433 l3 -420 105 0 105 0 0 430 0 430
-103 3 c-76 2 -104 -1 -107 -10z"/>
</g>
</svg>
