<?xml version="1.0" encoding="iso-8859-1"?>
<!-- Generator: Adobe Illustrator 19.2.0, SVG Export Plug-In . SVG Version: 6.00 Build 0)  -->
<svg version="1.1" id="Calque_1" xmlns="http://www.w3.org/2000/svg" xmlns:xlink="http://www.w3.org/1999/xlink" x="0px" y="0px"
	 width="652.971px" height="373.697px" viewBox="0 0 652.971 373.697" style="enable-background:new 0 0 652.971 373.697;"
	 xml:space="preserve">
<style type="text/css">
	.st0{fill:none;stroke:#9CCD9A;stroke-width:4.7868;stroke-miterlimit:3.8637;}
	.st1{fill-rule:evenodd;clip-rule:evenodd;fill:#A0A0A0;}
	.st2{fill:none;stroke:#000000;stroke-width:0.4788;stroke-miterlimit:3.8637;}
	.st3{fill:none;stroke:#000000;stroke-width:1.4361;stroke-miterlimit:3.8637;}
	.st4{fill-rule:evenodd;clip-rule:evenodd;fill:#FFFFFF;}
	.st5{fill:none;stroke:#000000;stroke-width:0.4786;stroke-miterlimit:3.8637;}
	.st6{fill:none;stroke:#000000;stroke-width:1.4354;stroke-miterlimit:3.8637;}
	.st7{fill:none;stroke:#000000;stroke-width:0.4821;stroke-miterlimit:3.8637;}
	.st8{fill:none;stroke:#000000;stroke-width:1.446;stroke-miterlimit:3.8637;}
	.st9{fill:#1D1D1B;}
	.st10{fill-rule:evenodd;clip-rule:evenodd;fill:#9CCD9A;}
	.st11{fill:none;}
</style>
<polyline class="st0" points="257.962,159.247 257.752,36.255 287.55,36.41 287.884,159.411 "/>
<polyline class="st0" points="180.745,34.103 224.021,34.103 223.873,68.703 181.495,68.703 "/>
<polygon class="st1" points="186.101,20.087 295.625,20.087 295.625,27.493 186.101,27.493 186.101,20.087 "/>
<polygon class="st2" points="186.101,20.087 295.625,20.087 295.625,27.493 186.101,27.493 186.101,20.087 "/>
<polygon class="st3" points="301.501,10.829 180.698,10.829 180.698,159.57 301.501,159.57 301.501,10.829 "/>
<polygon class="st1" points="237.314,21.587 240.729,21.587 240.729,148.108 237.314,148.108 237.314,21.587 "/>
<polygon class="st2" points="237.314,21.587 240.729,21.587 240.729,148.108 237.314,148.108 237.314,21.587 "/>
<polygon class="st3" points="197.021,40.172 217.54,40.172 217.54,62.919 197.021,62.919 197.021,40.172 "/>
<line class="st3" x1="207.153" y1="40.525" x2="207.153" y2="27.493"/>
<path class="st3" d="M206.998,76.156c1.104,0,1.998,0.889,1.998,1.984s-0.894,1.983-1.998,1.983c-1.104,0-1.998-0.888-1.998-1.983
	C205,77.044,205.894,76.156,206.998,76.156L206.998,76.156z"/>
<line class="st3" x1="207.153" y1="75.901" x2="207.153" y2="62.869"/>
<line class="st3" x1="292.575" y1="49.182" x2="281.448" y2="49.182"/>
<path class="st3" d="M294.569,47.071c1.102,0,1.998,0.888,1.998,1.985c0,1.095-0.896,1.983-1.998,1.983c-1.104,0-2-0.888-2-1.983
	C292.569,47.959,293.465,47.071,294.569,47.071L294.569,47.071z"/>
<polygon class="st3" points="263.38,41.511 281.165,41.511 281.165,56.589 263.38,56.589 263.38,41.511 "/>
<line class="st3" x1="263.38" y1="49.182" x2="240.717" y2="49.182"/>
<line class="st3" x1="292.575" y1="72.767" x2="281.448" y2="72.767"/>
<path class="st3" d="M294.569,70.655c1.104,0,1.998,0.888,1.998,1.983s-0.894,1.984-1.998,1.984c-1.104,0-1.998-0.889-1.998-1.984
	S293.465,70.655,294.569,70.655L294.569,70.655z"/>
<polygon class="st3" points="263.38,65.095 281.165,65.095 281.165,80.173 263.38,80.173 263.38,65.095 "/>
<line class="st3" x1="263.38" y1="72.767" x2="240.717" y2="72.767"/>
<line class="st3" x1="292.575" y1="96.35" x2="281.448" y2="96.35"/>
<path class="st3" d="M294.569,94.239c1.104,0,1.998,0.889,1.998,1.984c0,1.095-0.894,1.983-1.998,1.983
	c-1.104,0-1.998-0.888-1.998-1.983C292.571,95.128,293.465,94.239,294.569,94.239L294.569,94.239z"/>
<polygon class="st3" points="263.38,88.68 281.165,88.68 281.165,103.756 263.38,103.756 263.38,88.68 "/>
<line class="st3" x1="263.38" y1="96.35" x2="240.717" y2="96.35"/>
<line class="st3" x1="292.575" y1="119.934" x2="281.448" y2="119.934"/>
<path class="st3" d="M294.569,117.823c1.104,0,2,0.888,2,1.983s-0.896,1.984-2,1.984c-1.102,0-1.998-0.889-1.998-1.984
	S293.467,117.823,294.569,117.823L294.569,117.823z"/>
<polygon class="st3" points="263.38,112.263 281.165,112.263 281.165,127.339 263.38,127.339 263.38,112.263 "/>
<line class="st3" x1="263.38" y1="119.934" x2="240.717" y2="119.934"/>
<line class="st3" x1="245.017" y1="10.816" x2="245.017" y2="159.57"/>
<line class="st3" x1="229.672" y1="10.816" x2="229.672" y2="159.894"/>
<polygon class="st1" points="16.199,20.087 125.724,20.087 125.724,27.493 16.199,27.493 16.199,20.087 "/>
<polygon class="st2" points="16.199,20.087 125.724,20.087 125.724,27.493 16.199,27.493 16.199,20.087 "/>
<polygon class="st3" points="131.601,10.829 10.797,10.829 10.797,159.57 131.601,159.57 131.601,10.829 "/>
<polygon class="st1" points="67.413,21.587 70.828,21.587 70.828,148.108 67.413,148.108 67.413,21.587 "/>
<polygon class="st2" points="67.413,21.587 70.828,21.587 70.828,148.108 67.413,148.108 67.413,21.587 "/>
<polygon class="st3" points="27.12,40.172 47.639,40.172 47.639,62.919 27.12,62.919 27.12,40.172 "/>
<line class="st3" x1="37.252" y1="40.525" x2="37.252" y2="27.493"/>
<path class="st3" d="M37.097,76.156c1.104,0,1.998,0.889,1.998,1.984s-0.894,1.983-1.998,1.983c-1.104,0-1.998-0.888-1.998-1.983
	C35.099,77.044,35.993,76.156,37.097,76.156L37.097,76.156z"/>
<line class="st3" x1="37.252" y1="75.901" x2="37.252" y2="62.869"/>
<line class="st3" x1="122.673" y1="49.182" x2="111.547" y2="49.182"/>
<path class="st3" d="M124.668,47.071c1.102,0,1.998,0.888,1.998,1.985c0,1.095-0.896,1.983-1.998,1.983c-1.104,0-2-0.888-2-1.983
	C122.668,47.959,123.564,47.071,124.668,47.071L124.668,47.071z"/>
<polygon class="st3" points="93.479,41.511 111.264,41.511 111.264,56.589 93.479,56.589 93.479,41.511 "/>
<line class="st3" x1="93.479" y1="49.182" x2="70.816" y2="49.182"/>
<line class="st3" x1="122.673" y1="72.767" x2="111.547" y2="72.767"/>
<path class="st3" d="M124.668,70.655c1.104,0,1.998,0.888,1.998,1.983s-0.894,1.984-1.998,1.984s-1.998-0.889-1.998-1.984
	S123.564,70.655,124.668,70.655L124.668,70.655z"/>
<polygon class="st3" points="93.479,65.095 111.264,65.095 111.264,80.173 93.479,80.173 93.479,65.095 "/>
<line class="st3" x1="93.479" y1="72.767" x2="70.816" y2="72.767"/>
<line class="st3" x1="122.673" y1="96.35" x2="111.547" y2="96.35"/>
<path class="st3" d="M124.668,94.239c1.104,0,1.998,0.889,1.998,1.984c0,1.095-0.894,1.983-1.998,1.983s-1.998-0.888-1.998-1.983
	C122.67,95.128,123.564,94.239,124.668,94.239L124.668,94.239z"/>
<polygon class="st3" points="93.479,88.68 111.264,88.68 111.264,103.756 93.479,103.756 93.479,88.68 "/>
<line class="st3" x1="93.479" y1="96.35" x2="70.816" y2="96.35"/>
<line class="st3" x1="122.673" y1="119.934" x2="111.547" y2="119.934"/>
<path class="st3" d="M124.668,117.823c1.104,0,2,0.888,2,1.983s-0.896,1.984-2,1.984c-1.102,0-1.998-0.889-1.998-1.984
	S123.566,117.823,124.668,117.823L124.668,117.823z"/>
<polygon class="st3" points="93.479,112.263 111.264,112.263 111.264,127.339 93.479,127.339 93.479,112.263 "/>
<line class="st3" x1="93.479" y1="119.934" x2="70.816" y2="119.934"/>
<line class="st3" x1="75.116" y1="10.816" x2="75.116" y2="159.57"/>
<line class="st3" x1="59.771" y1="10.816" x2="59.771" y2="159.894"/>
<polygon class="st4" points="470.473,10.797 350.6,10.797 350.6,159.57 470.473,159.57 470.473,10.797 "/>
<polyline class="st0" points="427.27,159.247 426.827,35.571 470.051,35.571 "/>
<polyline class="st0" points="350.647,34.076 393.589,34.076 393.589,159.247 "/>
<polygon class="st1" points="355.961,20.056 464.643,20.056 464.643,27.464 355.961,27.464 355.961,20.056 "/>
<polygon class="st2" points="355.961,20.056 464.643,20.056 464.643,27.464 355.961,27.464 355.961,20.056 "/>
<polygon class="st3" points="470.473,10.797 350.6,10.797 350.6,159.57 470.473,159.57 470.473,10.797 "/>
<polygon class="st1" points="406.782,21.556 410.169,21.556 410.169,148.105 406.782,148.105 406.782,21.556 "/>
<polygon class="st2" points="406.782,21.556 410.169,21.556 410.169,148.105 406.782,148.105 406.782,21.556 "/>
<polygon class="st3" points="366.799,40.145 387.16,40.145 387.16,62.898 366.799,62.897 366.799,40.145 "/>
<line class="st3" x1="376.851" y1="40.5" x2="376.851" y2="27.464"/>
<path class="st3" d="M376.7,76.137c1.095,0,1.983,0.888,1.983,1.984c0,1.095-0.887,1.983-1.983,1.983
	c-1.096,0-1.983-0.888-1.983-1.983C374.718,77.025,375.605,76.137,376.7,76.137L376.7,76.137z"/>
<line class="st3" x1="376.851" y1="75.883" x2="376.851" y2="62.848"/>
<line class="st3" x1="461.615" y1="49.159" x2="450.574" y2="49.159"/>
<path class="st3" d="M463.594,47.046c1.095,0,1.984,0.888,1.984,1.983c0,1.096-0.889,1.984-1.983,1.984
	c-1.095,0-1.984-0.888-1.984-1.984C461.612,47.934,462.501,47.046,463.594,47.046L463.594,47.046z"/>
<polygon class="st3" points="432.647,41.486 450.292,41.486 450.292,56.566 432.647,56.566 432.647,41.486 "/>
<line class="st3" x1="432.647" y1="49.159" x2="410.157" y2="49.159"/>
<line class="st3" x1="461.615" y1="72.747" x2="450.574" y2="72.747"/>
<path class="st3" d="M463.596,70.634c1.095,0,1.983,0.889,1.983,1.984c0,1.096-0.887,1.985-1.983,1.985
	c-1.095,0-1.984-0.889-1.984-1.985C461.612,71.522,462.501,70.634,463.596,70.634L463.596,70.634z"/>
<polygon class="st3" points="432.647,65.075 450.292,65.075 450.292,80.155 432.647,80.155 432.647,65.075 "/>
<line class="st3" x1="432.647" y1="72.747" x2="410.157" y2="72.747"/>
<line class="st3" x1="461.615" y1="96.336" x2="450.574" y2="96.336"/>
<path class="st3" d="M463.596,94.223c1.095,0,1.983,0.889,1.983,1.984c0,1.096-0.887,1.984-1.983,1.984
	c-1.095,0-1.983-0.888-1.983-1.984C461.613,95.112,462.501,94.223,463.596,94.223L463.596,94.223z"/>
<polygon class="st3" points="432.647,88.664 450.292,88.664 450.292,103.744 432.647,103.744 432.647,88.664 "/>
<line class="st3" x1="432.647" y1="96.336" x2="410.157" y2="96.336"/>
<line class="st3" x1="461.615" y1="119.925" x2="450.574" y2="119.925"/>
<path class="st3" d="M463.596,117.812c1.095,0,1.984,0.888,1.984,1.984c0,1.096-0.889,1.985-1.984,1.985
	c-1.095,0-1.983-0.889-1.983-1.985C461.613,118.7,462.501,117.812,463.596,117.812L463.596,117.812z"/>
<polygon class="st3" points="432.647,112.253 450.292,112.253 450.292,127.333 432.647,127.333 432.647,112.253 "/>
<line class="st3" x1="432.647" y1="119.925" x2="410.157" y2="119.925"/>
<line class="st3" x1="414.424" y1="10.784" x2="414.424" y2="159.57"/>
<line class="st3" x1="399.197" y1="159.57" x2="399.197" y2="10.783"/>
<polygon class="st4" points="639.395,10.846 519.572,10.846 519.572,159.57 639.395,159.57 639.395,10.846 "/>
<polyline class="st0" points="520.353,34.117 562.542,34.117 562.456,68.595 520.265,68.595 "/>
<polyline class="st0" points="596.209,159.247 596.325,36.041 624.745,36.081 624.733,159.652 "/>
<line class="st0" x1="596.209" y1="60.787" x2="624.775" y2="60.676"/>
<line class="st0" x1="596.209" y1="84.369" x2="624.745" y2="84.313"/>
<line class="st0" x1="596.209" y1="107.949" x2="624.718" y2="107.949"/>
<polygon class="st1" points="524.931,20.101 633.567,20.101 633.567,27.508 524.931,27.508 524.931,20.101 "/>
<polygon class="st5" points="524.931,20.101 633.567,20.101 633.567,27.508 524.931,27.508 524.931,20.101 "/>
<polygon class="st6" points="535.765,40.185 556.117,40.185 556.117,62.93 535.765,62.928 535.765,40.185 "/>
<line class="st6" x1="545.812" y1="40.539" x2="545.812" y2="27.508"/>
<path class="st6" d="M545.66,76.164c1.095,0,1.983,0.889,1.983,1.984c0,1.095-0.887,1.984-1.983,1.984
	c-1.094,0-1.981-0.889-1.983-1.984C543.678,77.053,544.567,76.164,545.66,76.164L545.66,76.164z"/>
<line class="st6" x1="545.812" y1="75.911" x2="545.812" y2="62.879"/>
<line class="st6" x1="630.541" y1="49.195" x2="619.504" y2="49.195"/>
<path class="st6" d="M632.52,47.082c1.095,0,1.983,0.889,1.983,1.984s-0.887,1.983-1.983,1.983c-1.094,0-1.983-0.887-1.983-1.983
	S631.426,47.082,632.52,47.082L632.52,47.082z"/>
<polygon class="st6" points="601.584,41.525 619.223,41.525 619.223,56.6 601.584,56.6 601.584,41.525 "/>
<line class="st6" x1="601.584" y1="49.195" x2="579.105" y2="49.195"/>
<line class="st6" x1="630.541" y1="72.775" x2="619.504" y2="72.775"/>
<path class="st6" d="M632.52,70.664c1.095,0,1.983,0.889,1.983,1.983c0,1.097-0.887,1.984-1.981,1.984
	c-1.095,0-1.983-0.887-1.983-1.984C630.539,71.553,631.426,70.664,632.52,70.664L632.52,70.664z"/>
<polygon class="st6" points="601.584,65.105 619.223,65.105 619.223,80.181 601.584,80.181 601.584,65.105 "/>
<line class="st6" x1="601.584" y1="72.775" x2="579.105" y2="72.775"/>
<line class="st6" x1="630.541" y1="96.357" x2="619.504" y2="96.357"/>
<path class="st6" d="M632.522,94.244c1.094,0,1.983,0.889,1.983,1.984s-0.889,1.984-1.983,1.984c-1.095,0-1.983-0.889-1.983-1.984
	S631.426,94.244,632.522,94.244L632.522,94.244z"/>
<polygon class="st6" points="601.584,88.688 619.223,88.688 619.223,103.761 601.584,103.761 601.584,88.688 "/>
<line class="st6" x1="601.584" y1="96.357" x2="579.105" y2="96.357"/>
<line class="st6" x1="630.541" y1="119.938" x2="619.504" y2="119.938"/>
<path class="st6" d="M632.522,117.827c1.096,0,1.983,0.887,1.983,1.983s-0.887,1.983-1.983,1.983c-1.095,0-1.983-0.887-1.983-1.983
	S631.426,117.827,632.522,117.827L632.522,117.827z"/>
<polygon class="st6" points="601.584,112.268 619.223,112.268 619.223,127.345 601.584,127.345 601.584,112.268 "/>
<line class="st6" x1="601.584" y1="119.938" x2="579.105" y2="119.938"/>
<line class="st6" x1="583.369" y1="10.833" x2="583.369" y2="159.57"/>
<line class="st6" x1="572.035" y1="159.57" x2="572.035" y2="11.157"/>
<polygon class="st1" points="575.73,21.602 579.117,21.602 579.117,148.108 575.73,148.108 575.73,21.602 "/>
<polygon class="st5" points="575.73,21.602 579.117,21.602 579.117,148.108 575.73,148.108 575.73,21.602 "/>
<line class="st0" x1="624.395" y1="131.504" x2="596.343" y2="131.549"/>
<polygon class="st4" points="131.601,194.445 10.809,194.445 10.807,344.161 131.599,344.161 131.601,194.445 "/>
<line class="st0" x1="88.066" y1="244.72" x2="116.884" y2="244.782"/>
<line class="st0" x1="88.066" y1="268.457" x2="117.231" y2="268.359"/>
<line class="st0" x1="88.066" y1="292.195" x2="116.529" y2="292.289"/>
<polyline class="st0" points="11.272,217.871 54.128,217.872 54.253,252.133 10.937,252.595 "/>
<polyline class="st0" points="88.064,343.933 87.885,219.728 116.934,219.727 116.543,344.339 "/>
<polygon class="st1" points="16.212,203.763 125.725,203.765 125.725,211.22 16.212,211.218 16.212,203.763 "/>
<polygon class="st7" points="16.212,203.763 125.725,203.765 125.725,211.22 16.212,211.218 16.212,203.763 "/>
<polygon class="st8" points="27.099,224.008 47.614,224.011 47.618,246.905 27.102,246.902 27.099,224.008 "/>
<line class="st8" x1="37.26" y1="224.336" x2="37.262" y2="211.218"/>
<path class="st8" d="M37.08,260.226c1.104,0,1.998,0.892,1.998,1.997c0,1.102-0.894,1.996-1.998,1.996
	c-1.102,0-1.998-0.896-1.998-1.996C35.081,261.119,35.975,260.226,37.08,260.226L37.08,260.226z"/>
<line class="st8" x1="37.26" y1="259.944" x2="37.26" y2="246.826"/>
<line class="st8" x1="122.675" y1="233.049" x2="111.548" y2="233.049"/>
<path class="st8" d="M124.628,230.966c1.104,0,1.998,0.892,1.998,1.996c0,1.102-0.894,1.997-1.998,1.997
	c-1.102,0-1.998-0.896-1.998-1.997C122.63,231.858,123.524,230.966,124.628,230.966L124.628,230.966z"/>
<polygon class="st8" points="93.484,225.329 111.265,225.329 111.265,240.504 93.484,240.504 93.484,225.329 "/>
<line class="st8" x1="93.484" y1="233.049" x2="70.823" y2="233.049"/>
<line class="st8" x1="122.675" y1="256.789" x2="111.548" y2="256.789"/>
<path class="st8" d="M124.632,254.7c1.104,0,1.998,0.894,1.998,1.998c0,1.101-0.894,1.995-1.998,1.995
	c-1.102,0-1.998-0.894-1.998-1.996C122.634,255.595,123.528,254.7,124.632,254.7L124.632,254.7z"/>
<polygon class="st8" points="93.484,249.067 111.265,249.067 111.265,264.244 93.484,264.244 93.484,249.067 "/>
<line class="st8" x1="93.484" y1="256.789" x2="70.823" y2="256.789"/>
<line class="st8" x1="122.675" y1="280.527" x2="111.548" y2="280.527"/>
<path class="st8" d="M124.635,278.437c1.104,0,1.998,0.894,1.998,1.997c0,1.102-0.894,1.996-1.997,1.996
	c-1.104-0.002-2-0.894-2-1.998C122.637,279.331,123.533,278.435,124.635,278.437L124.635,278.437z"/>
<polygon class="st8" points="93.484,272.806 111.265,272.806 111.265,287.982 93.484,287.98 93.484,272.806 "/>
<line class="st8" x1="93.484" y1="280.525" x2="70.821" y2="280.525"/>
<line class="st8" x1="122.675" y1="304.265" x2="111.548" y2="304.265"/>
<path class="st8" d="M124.639,302.171c1.104,0,1.998,0.896,1.998,1.996c0,1.104-0.894,1.997-1.996,1.997c-1.104,0-2-0.892-2-1.997
	C122.641,303.065,123.536,302.171,124.639,302.171L124.639,302.171z"/>
<polygon class="st8" points="93.482,296.544 111.265,296.544 111.265,311.72 93.482,311.72 93.482,296.544 "/>
<line class="st8" x1="93.482" y1="304.265" x2="70.821" y2="304.265"/>
<line class="st8" x1="63.694" y1="343.834" x2="63.696" y2="194.758"/>
<line class="st8" x1="75.121" y1="344.161" x2="75.123" y2="194.431"/>
<polygon class="st1" points="67.422,205.273 70.835,205.273 70.833,332.622 67.42,332.622 67.422,205.273 "/>
<polygon class="st7" points="67.422,205.273 70.835,205.273 70.833,332.622 67.42,332.622 67.422,205.273 "/>
<line class="st0" x1="86.996" y1="316.629" x2="116.611" y2="316.773"/>
<line class="st0" x1="54.208" y1="241.664" x2="54.278" y2="343.345"/>
<line class="st0" x1="100.771" y1="219.763" x2="131.503" y2="219.699"/>
<polygon class="st4" points="301.489,194.445 180.698,194.445 180.696,344.161 301.488,344.161 301.489,194.445 "/>
<line class="st0" x1="257.955" y1="244.72" x2="301.457" y2="244.782"/>
<line class="st0" x1="257.955" y1="268.407" x2="301.805" y2="268.407"/>
<line class="st0" x1="257.955" y1="292.242" x2="301.103" y2="292.242"/>
<polyline class="st0" points="181.161,217.871 224.017,217.872 224.142,343.81 "/>
<polyline class="st0" points="257.953,343.933 257.774,219.728 286.823,219.727 "/>
<polygon class="st1" points="186.101,203.763 295.614,203.765 295.614,211.22 186.101,211.218 186.101,203.763 "/>
<polygon class="st7" points="186.101,203.763 295.614,203.765 295.614,211.22 186.101,211.218 186.101,203.763 "/>
<polygon class="st8" points="196.988,224.008 217.503,224.011 217.507,246.905 196.991,246.902 196.988,224.008 "/>
<line class="st8" x1="207.149" y1="224.336" x2="207.151" y2="211.218"/>
<path class="st8" d="M206.969,260.226c1.104,0,1.998,0.892,1.998,1.997c0,1.102-0.894,1.996-1.998,1.996
	c-1.102,0-1.998-0.896-1.998-1.996C204.97,261.119,205.864,260.226,206.969,260.226L206.969,260.226z"/>
<line class="st8" x1="207.149" y1="259.944" x2="207.149" y2="246.826"/>
<line class="st8" x1="292.564" y1="233.049" x2="281.437" y2="233.049"/>
<path class="st8" d="M294.517,230.966c1.104,0,1.998,0.892,1.998,1.996c0,1.102-0.894,1.997-1.998,1.997
	c-1.102,0-1.998-0.896-1.998-1.997C292.519,231.858,293.413,230.966,294.517,230.966L294.517,230.966z"/>
<polygon class="st8" points="263.373,225.329 281.154,225.329 281.154,240.504 263.373,240.504 263.373,225.329 "/>
<line class="st8" x1="263.373" y1="233.049" x2="240.712" y2="233.049"/>
<line class="st8" x1="292.564" y1="256.789" x2="281.437" y2="256.789"/>
<path class="st8" d="M294.521,254.7c1.104,0,1.998,0.894,1.998,1.998c0,1.101-0.894,1.995-1.998,1.995
	c-1.102,0-1.998-0.894-1.998-1.996C292.522,255.595,293.417,254.7,294.521,254.7L294.521,254.7z"/>
<polygon class="st8" points="263.373,249.067 281.154,249.067 281.154,264.244 263.373,264.244 263.373,249.067 "/>
<line class="st8" x1="263.373" y1="256.789" x2="240.712" y2="256.789"/>
<line class="st8" x1="292.564" y1="280.527" x2="281.437" y2="280.527"/>
<path class="st8" d="M294.524,278.437c1.104,0,1.998,0.894,1.998,1.997c0,1.102-0.894,1.996-1.997,1.996
	c-1.104-0.002-2-0.894-2-1.998C292.526,279.331,293.422,278.435,294.524,278.437L294.524,278.437z"/>
<polygon class="st8" points="263.373,272.806 281.154,272.806 281.154,287.982 263.373,287.98 263.373,272.806 "/>
<line class="st8" x1="263.373" y1="280.525" x2="240.71" y2="280.525"/>
<line class="st8" x1="292.564" y1="304.265" x2="281.437" y2="304.265"/>
<path class="st8" d="M294.528,302.171c1.104,0,1.998,0.896,1.998,1.996c0,1.104-0.894,1.997-1.996,1.997c-1.104,0-2-0.892-2-1.997
	C292.529,303.065,293.425,302.171,294.528,302.171L294.528,302.171z"/>
<polygon class="st8" points="263.371,296.544 281.154,296.544 281.154,311.72 263.371,311.72 263.371,296.544 "/>
<line class="st8" x1="263.371" y1="304.265" x2="240.71" y2="304.265"/>
<line class="st8" x1="233.583" y1="343.834" x2="233.585" y2="194.758"/>
<line class="st8" x1="245.01" y1="344.161" x2="245.012" y2="194.431"/>
<polygon class="st1" points="237.311,205.273 240.724,205.273 240.722,332.622 237.309,332.622 237.311,205.273 "/>
<polygon class="st7" points="237.311,205.273 240.724,205.273 240.722,332.622 237.309,332.622 237.311,205.273 "/>
<line class="st0" x1="270.66" y1="219.763" x2="301.392" y2="219.699"/>
<polygon class="st4" points="471.391,194.447 350.6,194.447 350.598,344.162 471.39,344.162 471.391,194.447 "/>
<line class="st0" x1="427.857" y1="244.721" x2="471.428" y2="244.784"/>
<line class="st0" x1="427.857" y1="268.459" x2="471.775" y2="268.36"/>
<line class="st0" x1="427.857" y1="292.197" x2="471.074" y2="292.291"/>
<polyline class="st0" points="351.063,217.872 393.919,217.874 394.044,344.058 "/>
<polyline class="st0" points="427.855,343.935 427.676,219.73 456.725,219.728 456.334,344.341 "/>
<polygon class="st1" points="356.002,203.765 465.516,203.767 465.516,211.221 356.002,211.22 356.002,203.765 "/>
<polygon class="st7" points="356.002,203.765 465.516,203.767 465.516,211.221 356.002,211.22 356.002,203.765 "/>
<polygon class="st8" points="366.89,224.01 387.405,224.013 387.409,246.907 366.893,246.904 366.89,224.01 "/>
<line class="st8" x1="377.051" y1="224.338" x2="377.053" y2="211.22"/>
<path class="st8" d="M376.871,260.228c1.104,0,1.998,0.892,1.998,1.997c0,1.102-0.894,1.996-1.998,1.996
	c-1.103,0-1.998-0.896-1.998-1.996C374.872,261.121,375.766,260.228,376.871,260.228L376.871,260.228z"/>
<line class="st8" x1="377.051" y1="259.945" x2="377.051" y2="246.827"/>
<line class="st8" x1="462.466" y1="233.051" x2="451.339" y2="233.051"/>
<path class="st8" d="M464.419,230.968c1.104,0,1.998,0.892,1.998,1.997c0,1.102-0.894,1.996-1.998,1.996
	c-1.103,0-1.998-0.896-1.998-1.996C462.421,231.86,463.315,230.968,464.419,230.968L464.419,230.968z"/>
<polygon class="st8" points="433.275,225.331 451.056,225.331 451.056,240.506 433.275,240.506 433.275,225.331 "/>
<line class="st8" x1="433.275" y1="233.051" x2="410.613" y2="233.051"/>
<line class="st8" x1="462.466" y1="256.791" x2="451.339" y2="256.791"/>
<path class="st8" d="M464.423,254.702c1.104,0,1.998,0.894,1.998,1.998c0,1.101-0.894,1.995-1.998,1.995
	c-1.102,0-1.998-0.894-1.998-1.996C462.424,255.596,463.318,254.702,464.423,254.702L464.423,254.702z"/>
<polygon class="st8" points="433.275,249.069 451.056,249.069 451.056,264.246 433.275,264.246 433.275,249.069 "/>
<line class="st8" x1="433.275" y1="256.791" x2="410.613" y2="256.791"/>
<line class="st8" x1="462.466" y1="280.529" x2="451.339" y2="280.529"/>
<path class="st8" d="M464.426,278.438c1.104,0,1.998,0.894,1.998,1.996s-0.894,1.997-1.997,1.997c-1.104-0.002-2-0.894-2-1.998
	C462.428,279.332,463.324,278.437,464.426,278.438L464.426,278.438z"/>
<polygon class="st8" points="433.275,272.808 451.056,272.808 451.056,287.983 433.275,287.982 433.275,272.808 "/>
<line class="st8" x1="433.275" y1="280.527" x2="410.612" y2="280.527"/>
<line class="st8" x1="462.466" y1="304.266" x2="451.339" y2="304.266"/>
<path class="st8" d="M464.429,302.173c1.104,0,1.998,0.896,1.998,1.996c0,1.104-0.894,1.997-1.996,1.997c-1.104,0-2-0.892-2-1.997
	C462.431,303.067,463.327,302.173,464.429,302.173L464.429,302.173z"/>
<polygon class="st8" points="433.273,296.546 451.056,296.546 451.056,311.721 433.273,311.721 433.273,296.546 "/>
<line class="st8" x1="433.273" y1="304.266" x2="410.612" y2="304.266"/>
<line class="st8" x1="403.485" y1="343.836" x2="403.487" y2="194.759"/>
<line class="st8" x1="414.912" y1="344.162" x2="414.914" y2="194.433"/>
<polygon class="st1" points="407.212,205.275 410.626,205.275 410.624,332.624 407.211,332.624 407.212,205.275 "/>
<polygon class="st7" points="407.212,205.275 410.626,205.275 410.624,332.624 407.211,332.624 407.212,205.275 "/>
<line class="st0" x1="440.561" y1="219.765" x2="471.294" y2="219.7"/>
<polygon class="st8" points="301.489,194.445 180.698,194.445 180.696,344.161 301.488,344.161 301.489,194.445 "/>
<polygon class="st8" points="131.601,194.445 10.809,194.445 10.807,344.161 131.599,344.161 131.601,194.445 "/>
<polygon class="st8" points="471.391,194.447 350.6,194.447 350.598,344.162 471.39,344.162 471.391,194.447 "/>
<polygon class="st6" points="639.395,10.846 519.572,10.846 519.572,159.57 639.395,159.57 639.395,10.846 "/>
<g>
	<g>
		<g>
			<g>
				<g>
					<path class="st9" d="M13.964,176.459h-1.208v-8.94h6.188v1.071h-4.98v2.739h4.383v1.071h-4.383V176.459z"/>
					<path class="st9" d="M22.377,169.76c2.08,0,3.026,1.756,3.026,3.437s-0.946,3.437-3.026,3.437s-3.026-1.756-3.026-3.437
						S20.297,169.76,22.377,169.76z M22.377,175.687c1.569,0,1.893-1.619,1.893-2.49s-0.324-2.49-1.893-2.49
						s-1.893,1.619-1.893,2.49S20.808,175.687,22.377,175.687z"/>
					<path class="st9" d="M27.889,176.459h-1.096v-6.512h1.034v1.083h0.025c0.436-0.759,1.009-1.27,1.83-1.27
						c0.137,0,0.199,0.013,0.287,0.037v1.133h-0.411c-1.021,0-1.669,0.797-1.669,1.743V176.459z"/>
					<path class="st9" d="M31.099,169.947h1.033v0.922h0.025c0.237-0.349,0.797-1.108,1.967-1.108s1.544,0.71,1.73,1.059
						c0.548-0.61,0.984-1.059,1.992-1.059c0.697,0,2.018,0.361,2.018,2.191v4.507h-1.096v-4.208c0-0.896-0.274-1.507-1.208-1.507
						c-0.921,0-1.531,0.872-1.531,1.743v3.972h-1.096v-4.507c0-0.548-0.212-1.208-1.021-1.208c-0.622,0-1.718,0.398-1.718,2.167
						v3.548h-1.096V169.947z"/>
					<path class="st9" d="M46.994,174.417c-0.038,0.311-0.336,1.233-1.158,1.781c-0.299,0.199-0.722,0.448-1.768,0.448
						c-1.831,0-2.914-1.382-2.914-3.263c0-2.017,0.971-3.623,3.125-3.623c1.88,0,2.802,1.494,2.802,3.798h-4.756
						c0,1.357,0.635,2.142,1.893,2.142c1.034,0,1.644-0.797,1.681-1.283H46.994z M45.948,172.686
						c-0.063-1.008-0.486-1.942-1.818-1.942c-1.008,0-1.805,0.934-1.805,1.942H45.948z"/>
					<path class="st9" d="M55.504,176.459h-1.17v-6.213h-2.042v-0.871c1.419-0.1,2.004-0.237,2.353-1.669h0.859V176.459z"/>
				</g>
			</g>
		</g>
	</g>
</g>
<g>
	<g>
		<g>
			<g>
				<g>
					<path class="st9" d="M182.866,176.459h-1.208v-8.94h6.188v1.071h-4.98v2.739h4.383v1.071h-4.383V176.459z"/>
					<path class="st9" d="M191.279,169.76c2.079,0,3.025,1.756,3.025,3.437s-0.946,3.437-3.025,3.437s-3.025-1.756-3.025-3.437
						S189.2,169.76,191.279,169.76z M191.279,175.687c1.569,0,1.893-1.619,1.893-2.49s-0.324-2.49-1.893-2.49
						s-1.893,1.619-1.893,2.49S189.71,175.687,191.279,175.687z"/>
					<path class="st9" d="M196.792,176.459h-1.096v-6.512h1.033v1.083h0.025c0.436-0.759,1.008-1.27,1.831-1.27
						c0.137,0,0.199,0.013,0.286,0.037v1.133h-0.411c-1.021,0-1.668,0.797-1.668,1.743V176.459z"/>
					<path class="st9" d="M200.001,169.947h1.034v0.922h0.025c0.236-0.349,0.797-1.108,1.967-1.108s1.544,0.71,1.731,1.059
						c0.548-0.61,0.983-1.059,1.992-1.059c0.697,0,2.017,0.361,2.017,2.191v4.507h-1.096v-4.208c0-0.896-0.273-1.507-1.208-1.507
						c-0.921,0-1.532,0.872-1.532,1.743v3.972h-1.096v-4.507c0-0.548-0.211-1.208-1.021-1.208c-0.623,0-1.719,0.398-1.719,2.167
						v3.548h-1.096V169.947z"/>
					<path class="st9" d="M215.895,174.417c-0.037,0.311-0.336,1.233-1.158,1.781c-0.299,0.199-0.722,0.448-1.768,0.448
						c-1.83,0-2.914-1.382-2.914-3.263c0-2.017,0.971-3.623,3.125-3.623c1.88,0,2.801,1.494,2.801,3.798h-4.756
						c0,1.357,0.635,2.142,1.893,2.142c1.033,0,1.644-0.797,1.681-1.283H215.895z M214.849,172.686
						c-0.062-1.008-0.485-1.942-1.817-1.942c-1.009,0-1.806,0.934-1.806,1.942H214.849z"/>
					<path class="st9" d="M220.484,170.843c0-2.851,2.08-3.138,3.026-3.138c1.519,0,2.739,0.984,2.739,2.615
						c0,1.568-1.034,2.229-2.341,2.926L223,173.745c-1.195,0.66-1.457,1.345-1.507,1.681h4.757v1.034h-5.989
						c0.063-1.818,0.884-2.789,2.055-3.474l1.158-0.672c0.934-0.536,1.606-0.896,1.606-2.042c0-0.697-0.448-1.582-1.73-1.582
						c-1.656,0-1.73,1.544-1.768,2.154H220.484z"/>
					<path class="st9" d="M227.627,171.927c0.05-1.556,1.083-2.167,2.689-2.167c0.523,0,2.416,0.149,2.416,1.818v3.748
						c0,0.274,0.137,0.386,0.361,0.386c0.1,0,0.237-0.025,0.361-0.05v0.797c-0.187,0.05-0.349,0.125-0.598,0.125
						c-0.971,0-1.121-0.498-1.158-0.996c-0.423,0.461-1.083,1.059-2.353,1.059c-1.195,0-2.042-0.76-2.042-1.88
						c0-0.548,0.162-1.818,1.98-2.042l1.805-0.224c0.261-0.025,0.573-0.125,0.573-0.772c0-0.685-0.498-1.058-1.531-1.058
						c-1.245,0-1.42,0.759-1.494,1.257H227.627z M231.637,173.134c-0.174,0.137-0.448,0.237-1.805,0.411
						c-0.536,0.075-1.395,0.236-1.395,1.059c0,0.709,0.361,1.133,1.183,1.133c1.021,0,2.017-0.66,2.017-1.531V173.134z"/>
				</g>
			</g>
		</g>
	</g>
</g>
<g>
	<g>
		<g>
			<g>
				<g>
					<path class="st9" d="M356.006,176.459h-1.208v-8.94h6.188v1.071h-4.98v2.739h4.383v1.071h-4.383V176.459z"/>
					<path class="st9" d="M364.419,169.76c2.08,0,3.026,1.756,3.026,3.437s-0.946,3.437-3.026,3.437
						c-2.079,0-3.025-1.756-3.025-3.437S362.34,169.76,364.419,169.76z M364.419,175.687c1.569,0,1.893-1.619,1.893-2.49
						s-0.323-2.49-1.893-2.49c-1.568,0-1.893,1.619-1.893,2.49S362.851,175.687,364.419,175.687z"/>
					<path class="st9" d="M369.932,176.459h-1.096v-6.512h1.033v1.083h0.024c0.437-0.759,1.009-1.27,1.831-1.27
						c0.137,0,0.199,0.013,0.286,0.037v1.133H371.6c-1.021,0-1.668,0.797-1.668,1.743V176.459z"/>
					<path class="st9" d="M373.142,169.947h1.033v0.922h0.025c0.236-0.349,0.797-1.108,1.967-1.108s1.544,0.71,1.73,1.059
						c0.548-0.61,0.984-1.059,1.992-1.059c0.697,0,2.018,0.361,2.018,2.191v4.507h-1.096v-4.208c0-0.896-0.274-1.507-1.208-1.507
						c-0.921,0-1.531,0.872-1.531,1.743v3.972h-1.096v-4.507c0-0.548-0.212-1.208-1.021-1.208c-0.622,0-1.718,0.398-1.718,2.167
						v3.548h-1.096V169.947z"/>
					<path class="st9" d="M389.037,174.417c-0.037,0.311-0.336,1.233-1.158,1.781c-0.299,0.199-0.723,0.448-1.768,0.448
						c-1.831,0-2.914-1.382-2.914-3.263c0-2.017,0.971-3.623,3.125-3.623c1.881,0,2.802,1.494,2.802,3.798h-4.757
						c0,1.357,0.636,2.142,1.893,2.142c1.034,0,1.645-0.797,1.682-1.283H389.037z M387.991,172.686
						c-0.063-1.008-0.485-1.942-1.818-1.942c-1.009,0-1.806,0.934-1.806,1.942H387.991z"/>
					<path class="st9" d="M393.625,170.843c0-2.851,2.079-3.138,3.025-3.138c1.52,0,2.739,0.984,2.739,2.615
						c0,1.568-1.033,2.229-2.341,2.926l-0.908,0.498c-1.195,0.66-1.457,1.345-1.507,1.681h4.756v1.034H393.4
						c0.063-1.818,0.885-2.789,2.055-3.474l1.158-0.672c0.934-0.536,1.606-0.896,1.606-2.042c0-0.697-0.448-1.582-1.731-1.582
						c-1.655,0-1.73,1.544-1.768,2.154H393.625z"/>
					<path class="st9" d="M400.718,176.459v-8.94h1.096v3.25h0.024c0.474-0.685,1.12-0.996,1.88-1.009
						c1.73,0,2.715,1.419,2.715,3.25c0,1.556-0.647,3.636-2.864,3.636c-1.108,0-1.568-0.635-1.793-0.996h-0.024v0.809H400.718z
						 M403.519,170.744c-1.581,0-1.756,1.706-1.756,2.765c0,1.73,1.084,2.191,1.781,2.191c1.195,0,1.756-1.083,1.756-2.516
						C405.3,172.35,405.212,170.744,403.519,170.744z"/>
				</g>
			</g>
		</g>
	</g>
</g>
<g>
	<g>
		<g>
			<g>
				<g>
					<path class="st9" d="M525.616,176.459h-1.208v-8.94h6.188v1.071h-4.98v2.739h4.383v1.071h-4.383V176.459z"/>
					<path class="st9" d="M534.029,169.76c2.08,0,3.026,1.756,3.026,3.437s-0.946,3.437-3.026,3.437
						c-2.079,0-3.025-1.756-3.025-3.437S531.95,169.76,534.029,169.76z M534.029,175.687c1.569,0,1.893-1.619,1.893-2.49
						s-0.323-2.49-1.893-2.49c-1.568,0-1.893,1.619-1.893,2.49S532.461,175.687,534.029,175.687z"/>
					<path class="st9" d="M539.542,176.459h-1.096v-6.512h1.033v1.083h0.024c0.437-0.759,1.009-1.27,1.831-1.27
						c0.137,0,0.199,0.013,0.286,0.037v1.133h-0.411c-1.021,0-1.668,0.797-1.668,1.743V176.459z"/>
					<path class="st9" d="M542.752,169.947h1.033v0.922h0.025c0.236-0.349,0.797-1.108,1.967-1.108s1.544,0.71,1.73,1.059
						c0.548-0.61,0.984-1.059,1.992-1.059c0.697,0,2.018,0.361,2.018,2.191v4.507h-1.096v-4.208c0-0.896-0.274-1.507-1.208-1.507
						c-0.921,0-1.531,0.872-1.531,1.743v3.972h-1.096v-4.507c0-0.548-0.212-1.208-1.021-1.208c-0.622,0-1.718,0.398-1.718,2.167
						v3.548h-1.096V169.947z"/>
					<path class="st9" d="M558.646,174.417c-0.037,0.311-0.336,1.233-1.158,1.781c-0.299,0.199-0.723,0.448-1.768,0.448
						c-1.831,0-2.914-1.382-2.914-3.263c0-2.017,0.971-3.623,3.125-3.623c1.881,0,2.802,1.494,2.802,3.798h-4.757
						c0,1.357,0.636,2.142,1.893,2.142c1.034,0,1.645-0.797,1.682-1.283H558.646z M557.6,172.686
						c-0.063-1.008-0.485-1.942-1.818-1.942c-1.009,0-1.806,0.934-1.806,1.942H557.6z"/>
					<path class="st9" d="M565.475,171.479c0.187,0.012,0.386,0.025,0.573,0.025c0.846,0,1.668-0.336,1.668-1.432
						c0-0.523-0.312-1.382-1.619-1.382c-1.556,0-1.655,1.27-1.705,1.88h-1.071c0-1.283,0.523-2.864,2.827-2.864
						c1.693,0,2.701,0.972,2.701,2.304c0,1.121-0.647,1.656-1.12,1.806v0.024c0.847,0.274,1.456,0.872,1.456,2.042
						c0,1.432-0.921,2.814-3.149,2.814c-0.647,0-1.195-0.162-1.619-0.386c-0.971-0.51-1.232-1.519-1.308-2.528h1.134
						c0.037,0.822,0.236,1.93,1.867,1.93c1.121,0,1.905-0.685,1.905-1.693c0-1.469-1.295-1.606-2.042-1.606
						c-0.162,0-0.336,0.012-0.498,0.012V171.479z"/>
					<path class="st9" d="M570.377,171.927c0.051-1.556,1.084-2.167,2.689-2.167c0.523,0,2.416,0.149,2.416,1.818v3.748
						c0,0.274,0.137,0.386,0.361,0.386c0.1,0,0.236-0.025,0.361-0.05v0.797c-0.188,0.05-0.35,0.125-0.598,0.125
						c-0.972,0-1.121-0.498-1.158-0.996c-0.424,0.461-1.084,1.059-2.354,1.059c-1.195,0-2.042-0.76-2.042-1.88
						c0-0.548,0.162-1.818,1.979-2.042l1.806-0.224c0.262-0.025,0.573-0.125,0.573-0.772c0-0.685-0.498-1.058-1.532-1.058
						c-1.245,0-1.419,0.759-1.494,1.257H570.377z M574.386,173.134c-0.174,0.137-0.448,0.237-1.806,0.411
						c-0.535,0.075-1.395,0.236-1.395,1.059c0,0.709,0.361,1.133,1.183,1.133c1.021,0,2.018-0.66,2.018-1.531V173.134z"/>
				</g>
			</g>
		</g>
	</g>
</g>
<g>
	<g>
		<g>
			<g>
				<g>
					<path class="st9" d="M13.963,360.819h-1.208v-8.94h6.188v1.071h-4.98v2.739h4.383v1.07h-4.383V360.819z"/>
					<path class="st9" d="M22.376,354.121c2.08,0,3.026,1.755,3.026,3.436c0,1.682-0.946,3.438-3.026,3.438
						s-3.026-1.756-3.026-3.438C19.35,355.875,20.296,354.121,22.376,354.121z M22.376,360.046c1.569,0,1.893-1.618,1.893-2.49
						c0-0.871-0.324-2.49-1.893-2.49s-1.893,1.619-1.893,2.49C20.483,358.428,20.807,360.046,22.376,360.046z"/>
					<path class="st9" d="M27.888,360.819h-1.096v-6.512h1.034v1.083h0.025c0.436-0.76,1.009-1.27,1.83-1.27
						c0.137,0,0.199,0.012,0.287,0.037v1.133h-0.411c-1.021,0-1.669,0.797-1.669,1.743V360.819z"/>
					<path class="st9" d="M31.098,354.307h1.033v0.921h0.025c0.237-0.349,0.797-1.107,1.967-1.107s1.544,0.709,1.73,1.058
						c0.548-0.61,0.984-1.058,1.992-1.058c0.697,0,2.018,0.36,2.018,2.191v4.507h-1.096v-4.208c0-0.896-0.274-1.507-1.208-1.507
						c-0.921,0-1.531,0.871-1.531,1.743v3.972h-1.096v-4.507c0-0.549-0.212-1.208-1.021-1.208c-0.622,0-1.718,0.398-1.718,2.166
						v3.549h-1.096V354.307z"/>
					<path class="st9" d="M46.993,358.777c-0.038,0.312-0.336,1.232-1.158,1.78c-0.299,0.199-0.722,0.448-1.768,0.448
						c-1.831,0-2.914-1.382-2.914-3.262c0-2.018,0.971-3.623,3.125-3.623c1.88,0,2.802,1.494,2.802,3.797h-4.756
						c0,1.357,0.635,2.142,1.893,2.142c1.034,0,1.644-0.797,1.681-1.282H46.993z M45.947,357.046
						c-0.063-1.009-0.486-1.942-1.818-1.942c-1.008,0-1.805,0.934-1.805,1.942H45.947z"/>
					<path class="st9" d="M53.823,355.838c0.187,0.013,0.386,0.024,0.573,0.024c0.847,0,1.668-0.336,1.668-1.432
						c0-0.522-0.312-1.382-1.619-1.382c-1.556,0-1.656,1.271-1.706,1.88h-1.071c0-1.282,0.523-2.863,2.827-2.863
						c1.693,0,2.702,0.971,2.702,2.303c0,1.121-0.647,1.656-1.12,1.806v0.025c0.847,0.273,1.457,0.871,1.457,2.042
						c0,1.432-0.921,2.813-3.15,2.813c-0.647,0-1.195-0.161-1.619-0.386c-0.971-0.511-1.232-1.52-1.307-2.527h1.133
						c0.037,0.821,0.236,1.93,1.867,1.93c1.121,0,1.905-0.685,1.905-1.693c0-1.469-1.295-1.606-2.042-1.606
						c-0.162,0-0.336,0.013-0.498,0.013V355.838z"/>
					<path class="st9" d="M58.675,360.819v-8.94h1.096v3.25h0.025c0.473-0.685,1.121-0.996,1.88-1.008
						c1.731,0,2.715,1.419,2.715,3.249c0,1.557-0.647,3.636-2.864,3.636c-1.108,0-1.568-0.635-1.793-0.996h-0.024v0.81H58.675z
						 M61.476,355.104c-1.581,0-1.755,1.706-1.755,2.764c0,1.731,1.083,2.191,1.781,2.191c1.195,0,1.755-1.083,1.755-2.515
						C63.257,356.71,63.169,355.104,61.476,355.104z"/>
				</g>
			</g>
		</g>
	</g>
</g>
<g>
	<g>
		<g>
			<g>
				<g>
					<path class="st9" d="M183.572,360.819h-1.208v-8.94h6.188v1.071h-4.98v2.739h4.383v1.07h-4.383V360.819z"/>
					<path class="st9" d="M191.984,354.121c2.08,0,3.026,1.755,3.026,3.436c0,1.682-0.946,3.438-3.026,3.438
						s-3.026-1.756-3.026-3.438C188.959,355.875,189.905,354.121,191.984,354.121z M191.984,360.046c1.569,0,1.893-1.618,1.893-2.49
						c0-0.871-0.324-2.49-1.893-2.49s-1.893,1.619-1.893,2.49C190.092,358.428,190.416,360.046,191.984,360.046z"/>
					<path class="st9" d="M197.497,360.819h-1.096v-6.512h1.034v1.083h0.025c0.436-0.76,1.009-1.27,1.83-1.27
						c0.137,0,0.199,0.012,0.287,0.037v1.133h-0.411c-1.021,0-1.669,0.797-1.669,1.743V360.819z"/>
					<path class="st9" d="M200.707,354.307h1.033v0.921h0.025c0.237-0.349,0.797-1.107,1.967-1.107s1.544,0.709,1.73,1.058
						c0.548-0.61,0.984-1.058,1.992-1.058c0.697,0,2.018,0.36,2.018,2.191v4.507h-1.096v-4.208c0-0.896-0.274-1.507-1.208-1.507
						c-0.921,0-1.531,0.871-1.531,1.743v3.972h-1.096v-4.507c0-0.549-0.212-1.208-1.021-1.208c-0.622,0-1.718,0.398-1.718,2.166
						v3.549h-1.096V354.307z"/>
					<path class="st9" d="M216.601,358.777c-0.038,0.312-0.336,1.232-1.158,1.78c-0.299,0.199-0.722,0.448-1.768,0.448
						c-1.831,0-2.914-1.382-2.914-3.262c0-2.018,0.971-3.623,3.125-3.623c1.88,0,2.802,1.494,2.802,3.797h-4.756
						c0,1.357,0.635,2.142,1.893,2.142c1.034,0,1.644-0.797,1.681-1.282H216.601z M215.555,357.046
						c-0.063-1.009-0.486-1.942-1.818-1.942c-1.008,0-1.805,0.934-1.805,1.942H215.555z"/>
					<path class="st9" d="M225.872,358.69v2.129h-1.096v-2.129h-3.822v-1.071l4.009-5.553h0.909v5.678h1.282v0.946H225.872z
						 M221.962,357.744h2.814v-3.973h-0.025L221.962,357.744z"/>
					<path class="st9" d="M228.333,356.287c0.05-1.557,1.083-2.166,2.689-2.166c0.523,0,2.416,0.148,2.416,1.817v3.748
						c0,0.273,0.137,0.386,0.361,0.386c0.1,0,0.236-0.025,0.361-0.05v0.797c-0.187,0.05-0.349,0.124-0.598,0.124
						c-0.971,0-1.121-0.498-1.158-0.996c-0.424,0.461-1.083,1.059-2.354,1.059c-1.195,0-2.042-0.76-2.042-1.88
						c0-0.548,0.162-1.817,1.979-2.042l1.806-0.225c0.262-0.024,0.573-0.124,0.573-0.771c0-0.685-0.498-1.059-1.532-1.059
						c-1.245,0-1.419,0.76-1.494,1.258H228.333z M232.342,357.495c-0.174,0.137-0.448,0.236-1.806,0.411
						c-0.535,0.074-1.395,0.236-1.395,1.058c0,0.71,0.361,1.134,1.183,1.134c1.021,0,2.017-0.66,2.017-1.532V357.495z"/>
				</g>
			</g>
		</g>
	</g>
</g>
<g>
	<g>
		<g>
			<g>
				<g>
					<path class="st9" d="M353.18,360.819h-1.208v-8.94h6.188v1.071h-4.98v2.739h4.383v1.07h-4.383V360.819z"/>
					<path class="st9" d="M361.593,354.121c2.08,0,3.026,1.755,3.026,3.436c0,1.682-0.946,3.438-3.026,3.438
						c-2.079,0-3.025-1.756-3.025-3.438C358.568,355.875,359.514,354.121,361.593,354.121z M361.593,360.046
						c1.569,0,1.893-1.618,1.893-2.49c0-0.871-0.323-2.49-1.893-2.49c-1.568,0-1.893,1.619-1.893,2.49
						C359.701,358.428,360.025,360.046,361.593,360.046z"/>
					<path class="st9" d="M367.106,360.819h-1.096v-6.512h1.033v1.083h0.024c0.437-0.76,1.009-1.27,1.831-1.27
						c0.137,0,0.199,0.012,0.286,0.037v1.133h-0.411c-1.021,0-1.668,0.797-1.668,1.743V360.819z"/>
					<path class="st9" d="M370.316,354.307h1.033v0.921h0.025c0.236-0.349,0.797-1.107,1.967-1.107s1.544,0.709,1.73,1.058
						c0.548-0.61,0.984-1.058,1.992-1.058c0.697,0,2.018,0.36,2.018,2.191v4.507h-1.096v-4.208c0-0.896-0.274-1.507-1.208-1.507
						c-0.921,0-1.531,0.871-1.531,1.743v3.972h-1.096v-4.507c0-0.549-0.212-1.208-1.021-1.208c-0.622,0-1.718,0.398-1.718,2.166
						v3.549h-1.096V354.307z"/>
					<path class="st9" d="M386.21,358.777c-0.037,0.312-0.336,1.232-1.158,1.78c-0.299,0.199-0.723,0.448-1.768,0.448
						c-1.831,0-2.914-1.382-2.914-3.262c0-2.018,0.971-3.623,3.125-3.623c1.881,0,2.802,1.494,2.802,3.797h-4.757
						c0,1.357,0.636,2.142,1.893,2.142c1.034,0,1.645-0.797,1.682-1.282H386.21z M385.165,357.046
						c-0.063-1.009-0.485-1.942-1.818-1.942c-1.009,0-1.806,0.934-1.806,1.942H385.165z"/>
					<path class="st9" d="M395.48,358.69v2.129h-1.096v-2.129h-3.822v-1.071l4.009-5.553h0.909v5.678h1.282v0.946H395.48z
						 M391.57,357.744h2.814v-3.973h-0.025L391.57,357.744z"/>
					<path class="st9" d="M397.892,360.819v-8.94h1.096v3.25h0.024c0.474-0.685,1.12-0.996,1.88-1.008
						c1.73,0,2.715,1.419,2.715,3.249c0,1.557-0.647,3.636-2.864,3.636c-1.108,0-1.568-0.635-1.793-0.996h-0.024v0.81H397.892z
						 M400.693,355.104c-1.581,0-1.756,1.706-1.756,2.764c0,1.731,1.084,2.191,1.781,2.191c1.195,0,1.756-1.083,1.756-2.515
						C402.474,356.71,402.386,355.104,400.693,355.104z"/>
				</g>
			</g>
		</g>
	</g>
</g>
<g>
	<g>
		<g>
			<g>
				<g>
					<path class="st9" d="M561.929,324.955v0.622c0,1.071,0.511,1.457,1.345,1.457c1.12,0,1.432-0.673,1.432-1.544v-6.6h1.208v6.525
						c0,2.092-1.369,2.651-2.577,2.651c-2.079,0-2.54-1.395-2.54-2.229v-0.884H561.929z"/>
					<path class="st9" d="M573.145,325.789c-0.038,0.312-0.337,1.232-1.158,1.78c-0.299,0.199-0.722,0.448-1.769,0.448
						c-1.83,0-2.913-1.382-2.913-3.262c0-2.018,0.972-3.623,3.125-3.623c1.88,0,2.802,1.494,2.802,3.797h-4.756
						c0,1.357,0.635,2.142,1.893,2.142c1.033,0,1.643-0.797,1.681-1.282H573.145z M572.099,324.058
						c-0.063-1.009-0.486-1.942-1.818-1.942c-1.008,0-1.805,0.934-1.805,1.942H572.099z"/>
					<path class="st9" d="M578.781,327.831v-0.946l-0.024-0.025c-0.461,0.76-1.021,1.158-2.067,1.158
						c-0.958,0-2.116-0.461-2.116-2.017v-4.682h1.096v4.32c0,1.071,0.548,1.432,1.258,1.432c1.382,0,1.793-1.22,1.793-2.166v-3.586
						h1.096v6.512H578.781z"/>
					<path class="st9" d="M586.746,327.831h-1.395l-1.618-2.453l-1.569,2.453h-1.382l2.291-3.35l-2.179-3.162h1.407l1.507,2.291
						l1.506-2.291h1.345l-2.204,3.162L586.746,327.831z"/>
					<path class="st9" d="M596.54,327.831h-1.033v-0.896h-0.024c-0.474,0.884-1.221,1.083-1.855,1.083
						c-2.217,0-2.864-2.079-2.864-3.636c0-1.83,0.983-3.249,2.715-3.249c1.183,0,1.681,0.734,1.942,1.107h0.024v-3.35h1.096V327.831
						z M593.651,327.071c0.697,0,1.78-0.46,1.78-2.191c0-1.058-0.174-2.764-1.755-2.764c-1.693,0-1.78,1.606-1.78,2.44
						C591.896,325.988,592.456,327.071,593.651,327.071z"/>
					<path class="st9" d="M603.584,325.789c-0.037,0.312-0.336,1.232-1.158,1.78c-0.299,0.199-0.723,0.448-1.768,0.448
						c-1.831,0-2.914-1.382-2.914-3.262c0-2.018,0.971-3.623,3.125-3.623c1.881,0,2.802,1.494,2.802,3.797h-4.757
						c0,1.357,0.636,2.142,1.893,2.142c1.034,0,1.645-0.797,1.682-1.282H603.584z M602.538,324.058
						c-0.063-1.009-0.485-1.942-1.818-1.942c-1.009,0-1.806,0.934-1.806,1.942H602.538z"/>
					<path class="st9" d="M608.347,327.831v-8.94h1.096v3.25h0.024c0.474-0.685,1.12-0.996,1.88-1.008
						c1.73,0,2.715,1.419,2.715,3.249c0,1.557-0.647,3.636-2.864,3.636c-1.108,0-1.568-0.635-1.793-0.996h-0.024v0.81H608.347z
						 M611.148,322.116c-1.581,0-1.756,1.706-1.756,2.764c0,1.731,1.084,2.191,1.781,2.191c1.195,0,1.756-1.083,1.756-2.515
						C612.929,323.722,612.841,322.116,611.148,322.116z"/>
					<path class="st9" d="M615.316,323.298c0.049-1.557,1.083-2.166,2.689-2.166c0.522,0,2.415,0.148,2.415,1.817v3.748
						c0,0.273,0.137,0.386,0.361,0.386c0.1,0,0.236-0.025,0.36-0.05v0.797c-0.187,0.05-0.348,0.124-0.598,0.124
						c-0.971,0-1.12-0.498-1.157-0.996c-0.424,0.461-1.083,1.059-2.354,1.059c-1.195,0-2.042-0.76-2.042-1.88
						c0-0.548,0.162-1.817,1.979-2.042l1.806-0.225c0.262-0.024,0.572-0.124,0.572-0.771c0-0.685-0.498-1.059-1.531-1.059
						c-1.245,0-1.419,0.76-1.494,1.258H615.316z M619.325,324.506c-0.175,0.137-0.448,0.236-1.806,0.411
						c-0.535,0.074-1.395,0.236-1.395,1.058c0,0.71,0.361,1.134,1.184,1.134c1.021,0,2.017-0.66,2.017-1.532V324.506z"/>
					<path class="st9" d="M623.517,327.831h-1.096v-6.512h1.033v1.083h0.025c0.436-0.76,1.008-1.27,1.83-1.27
						c0.137,0,0.199,0.012,0.286,0.037v1.133h-0.411c-1.021,0-1.668,0.797-1.668,1.743V327.831z"/>
					<path class="st9" d="M627.662,327.831h-1.096v-6.512h1.033v1.083h0.025c0.436-0.76,1.008-1.27,1.83-1.27
						c0.137,0,0.199,0.012,0.286,0.037v1.133h-0.411c-1.021,0-1.668,0.797-1.668,1.743V327.831z"/>
					<path class="st9" d="M636.088,325.789c-0.038,0.312-0.337,1.232-1.158,1.78c-0.299,0.199-0.722,0.448-1.769,0.448
						c-1.83,0-2.913-1.382-2.913-3.262c0-2.018,0.972-3.623,3.125-3.623c1.88,0,2.802,1.494,2.802,3.797h-4.756
						c0,1.357,0.635,2.142,1.893,2.142c1.033,0,1.643-0.797,1.681-1.282H636.088z M635.043,324.058
						c-0.063-1.009-0.486-1.942-1.818-1.942c-1.008,0-1.805,0.934-1.805,1.942H635.043z"/>
					<path class="st9" d="M641.177,323.173c-0.013-0.41-0.162-1.096-1.545-1.096c-0.336,0-1.295,0.112-1.295,0.922
						c0,0.535,0.337,0.66,1.184,0.871l1.096,0.274c1.357,0.336,1.83,0.834,1.83,1.718c0,1.346-1.108,2.154-2.577,2.154
						c-2.577,0-2.765-1.494-2.802-2.278h1.059c0.037,0.511,0.187,1.332,1.73,1.332c0.784,0,1.494-0.312,1.494-1.033
						c0-0.522-0.361-0.697-1.295-0.934l-1.27-0.312c-0.909-0.225-1.507-0.685-1.507-1.581c0-1.433,1.183-2.079,2.465-2.079
						c2.329,0,2.49,1.718,2.49,2.041H641.177z"/>
				</g>
			</g>
		</g>
	</g>
</g>
<g>
	<g>
		<g>
			<g>
				<g>
					<path class="st9" d="M566.922,339.052c-0.063-1.382-1.208-1.818-2.217-1.818c-0.759,0-2.042,0.212-2.042,1.569
						c0,0.76,0.535,1.009,1.059,1.133l2.553,0.585c1.158,0.274,2.029,0.972,2.029,2.391c0,2.117-1.967,2.702-3.499,2.702
						c-1.655,0-2.304-0.498-2.702-0.858c-0.759-0.686-0.908-1.433-0.908-2.267h1.133c0,1.618,1.32,2.092,2.465,2.092
						c0.872,0,2.342-0.224,2.342-1.507c0-0.934-0.437-1.232-1.905-1.581l-1.831-0.423c-0.585-0.138-1.904-0.549-1.904-2.104
						c0-1.395,0.908-2.765,3.075-2.765c3.125,0,3.437,1.868,3.486,2.852H566.922z"/>
					<path class="st9" d="M575.223,343.335c-0.038,0.312-0.337,1.232-1.158,1.78c-0.299,0.199-0.722,0.448-1.769,0.448
						c-1.83,0-2.913-1.382-2.913-3.262c0-2.018,0.972-3.623,3.125-3.623c1.88,0,2.802,1.494,2.802,3.797h-4.756
						c0,1.357,0.635,2.142,1.893,2.142c1.033,0,1.643-0.797,1.681-1.282H575.223z M574.177,341.605
						c-0.063-1.009-0.486-1.942-1.818-1.942c-1.008,0-1.805,0.934-1.805,1.942H574.177z M572.633,337.994h-0.835l1.108-1.756h1.345
						L572.633,337.994z"/>
					<path class="st9" d="M576.527,338.866h1.033v0.921h0.024c0.262-0.373,0.76-1.107,1.942-1.107c1.73,0,2.715,1.419,2.715,3.249
						c0,1.557-0.647,3.636-2.864,3.636c-0.871,0-1.444-0.41-1.73-0.871h-0.024v3.262h-1.096V338.866z M579.353,344.618
						c1.195,0,1.756-1.083,1.756-2.515c0-0.834-0.088-2.44-1.781-2.44c-1.581,0-1.756,1.706-1.756,2.764
						C577.572,344.158,578.656,344.618,579.353,344.618z"/>
					<path class="st9" d="M583.496,340.845c0.049-1.557,1.083-2.166,2.689-2.166c0.522,0,2.415,0.148,2.415,1.817v3.748
						c0,0.273,0.137,0.386,0.361,0.386c0.1,0,0.236-0.025,0.36-0.05v0.797c-0.187,0.05-0.348,0.124-0.598,0.124
						c-0.971,0-1.12-0.498-1.157-0.996c-0.424,0.461-1.083,1.059-2.354,1.059c-1.195,0-2.042-0.76-2.042-1.88
						c0-0.548,0.162-1.817,1.979-2.042l1.806-0.225c0.262-0.024,0.572-0.124,0.572-0.771c0-0.685-0.498-1.059-1.531-1.059
						c-1.245,0-1.419,0.76-1.494,1.258H583.496z M587.504,342.053c-0.175,0.137-0.448,0.236-1.806,0.411
						c-0.535,0.074-1.395,0.236-1.395,1.058c0,0.71,0.361,1.134,1.184,1.134c1.021,0,2.017-0.66,2.017-1.532V342.053z"/>
				</g>
				<g>
					<path class="st9" d="M591.696,345.377H590.6v-6.512h1.033v1.083h0.024c0.437-0.76,1.009-1.27,1.831-1.27
						c0.137,0,0.199,0.012,0.286,0.037v1.133h-0.411c-1.021,0-1.668,0.797-1.668,1.743V345.377z"/>
				</g>
				<g>
					<path class="st9" d="M594.435,340.845c0.051-1.557,1.084-2.166,2.689-2.166c0.523,0,2.416,0.148,2.416,1.817v3.748
						c0,0.273,0.137,0.386,0.361,0.386c0.1,0,0.236-0.025,0.361-0.05v0.797c-0.188,0.05-0.35,0.124-0.598,0.124
						c-0.972,0-1.121-0.498-1.158-0.996c-0.424,0.461-1.084,1.059-2.354,1.059c-1.195,0-2.042-0.76-2.042-1.88
						c0-0.548,0.162-1.817,1.979-2.042l1.806-0.225c0.262-0.024,0.573-0.124,0.573-0.771c0-0.685-0.498-1.059-1.532-1.059
						c-1.245,0-1.419,0.76-1.494,1.258H594.435z M598.445,342.053c-0.174,0.137-0.448,0.236-1.806,0.411
						c-0.535,0.074-1.395,0.236-1.395,1.058c0,0.71,0.361,1.134,1.183,1.134c1.021,0,2.018-0.66,2.018-1.532V342.053z"/>
					<path class="st9" d="M602.737,339.775v4.232c0,0.511,0.436,0.511,0.659,0.511h0.387v0.859c-0.398,0.037-0.71,0.087-0.822,0.087
						c-1.083,0-1.319-0.609-1.319-1.395v-4.295h-0.884v-0.909h0.884v-1.818h1.096v1.818h1.046v0.909H602.737z"/>
					<path class="st9" d="M604.877,337.683v-1.246h1.096v1.246H604.877z M605.972,345.377h-1.096v-6.512h1.096V345.377z"/>
					<path class="st9" d="M610.265,338.679c2.08,0,3.026,1.755,3.026,3.436c0,1.682-0.946,3.438-3.026,3.438
						c-2.079,0-3.025-1.756-3.025-3.438C607.24,340.434,608.186,338.679,610.265,338.679z M610.265,344.605
						c1.569,0,1.893-1.618,1.893-2.49c0-0.871-0.323-2.49-1.893-2.49c-1.568,0-1.893,1.619-1.893,2.49
						C608.373,342.987,608.697,344.605,610.265,344.605z"/>
				</g>
				<g>
					<path class="st9" d="M619.838,345.377h-1.096v-4.009c0-1.134-0.323-1.706-1.395-1.706c-0.622,0-1.718,0.398-1.718,2.166v3.549
						h-1.096v-6.512h1.033v0.921h0.025c0.236-0.349,0.846-1.107,1.967-1.107c1.009,0,2.278,0.41,2.278,2.266V345.377z"/>
				</g>
			</g>
		</g>
	</g>
</g>
<rect x="519.572" y="320.017" class="st1" width="30.158" height="8.224"/>
<rect x="519.572" y="337.015" class="st10" width="30.158" height="8.224"/>
<rect class="st11" width="652.971" height="373.697"/>
</svg>
