<?xml version="1.0" standalone="no"?>
<!DOCTYPE svg PUBLIC "-//W3C//DTD SVG 20010904//EN"
 "http://www.w3.org/TR/2001/REC-SVG-20010904/DTD/svg10.dtd">
<svg version="1.0" xmlns="http://www.w3.org/2000/svg"
 width="666.000000pt" height="161.000000pt" viewBox="0 0 666.000000 161.000000"
 preserveAspectRatio="xMidYMid meet">

<g transform="translate(0.000000,161.000000) scale(0.100000,-0.100000)"
fill="#000000" stroke="none">
<path d="M5434 1379 c16 -19 88 -97 160 -173 72 -77 163 -174 201 -215 39 -42
103 -110 143 -152 65 -68 72 -79 61 -95 -7 -11 -73 -74 -148 -142 -75 -68
-161 -146 -192 -175 -30 -29 -105 -97 -165 -153 -213 -196 -202 -182 -99 -123
177 103 1010 600 1017 607 5 5 -887 587 -991 646 -9 6 -3 -6 13 -25z"/>
<path d="M566 1168 c-8 -29 -31 -111 -50 -183 -19 -71 -80 -297 -135 -502 -56
-205 -101 -375 -101 -378 0 -3 1082 -5 2404 -5 l2404 0 16 71 c9 39 16 78 16
85 0 12 -346 14 -2251 14 l-2251 0 7 31 c4 18 22 82 39 143 l32 111 459 5 459
5 28 95 c15 52 30 105 33 117 l5 23 -460 0 c-253 0 -460 3 -460 8 0 4 12 53
26 110 l27 102 463 0 463 0 10 38 c6 20 11 44 11 53 0 9 7 33 15 52 8 20 15
41 15 47 0 7 -196 10 -604 10 l-605 0 -15 -52z m1144 -952 c0 -7 -3 -27 -6
-43 -6 -30 -8 -30 -78 -36 -39 -3 -84 -3 -99 0 -26 5 -27 8 -21 42 4 20 9 39
11 44 2 4 47 7 99 7 73 0 94 -3 94 -14z m255 -28 c-4 -24 -8 -44 -9 -45 -5 -6
-185 -7 -190 -2 -4 4 -4 25 0 48 l7 41 99 0 100 0 -7 -42z m259 5 c-3 -21 -9
-41 -13 -45 -7 -7 -75 -12 -147 -10 l-51 2 10 45 10 45 99 0 99 0 -7 -37z
m263 20 c-3 -10 -8 -30 -11 -45 l-6 -28 -100 0 -100 0 6 28 c15 66 7 62 115
62 91 0 100 -2 96 -17z m250 -28 l-10 -45 -99 0 c-54 0 -98 3 -98 8 0 4 5 24
11 45 l10 37 98 0 98 0 -10 -45z m263 31 c0 -7 -3 -28 -6 -45 l-6 -31 -100 0
-100 0 6 31 c3 17 6 38 6 45 0 11 22 14 100 14 78 0 100 -3 100 -14z m254 -23
c-4 -21 -9 -41 -11 -45 -2 -5 -47 -8 -99 -8 -102 0 -100 -1 -88 59 l7 31 99 0
99 0 -7 -37z m263 20 c-3 -10 -8 -30 -11 -45 l-6 -28 -99 0 -99 0 9 38 c5 20
9 40 9 45 0 4 45 7 101 7 91 0 100 -2 96 -17z m252 -20 c-5 -21 -9 -41 -9 -45
0 -5 -45 -8 -100 -8 l-100 0 6 28 c15 66 7 62 114 62 l98 0 -9 -37z m261 23
c0 -7 -3 -28 -6 -45 l-6 -31 -100 0 -100 0 7 37 c4 21 9 41 11 45 3 5 48 8
100 8 73 0 94 -3 94 -14z m255 -23 c-4 -21 -9 -41 -11 -45 -3 -5 -48 -8 -100
-8 -102 0 -100 -1 -88 59 l7 31 99 0 100 0 -7 -37z m261 20 c-2 -10 -7 -33
-11 -50 l-7 -33 -93 0 c-52 0 -96 3 -98 8 -2 4 0 26 5 50 l9 42 100 0 c91 0
100 -2 95 -17z m253 -20 c-5 -21 -9 -41 -9 -45 0 -5 -45 -8 -100 -8 l-100 0 6
28 c15 66 7 62 114 62 l98 0 -9 -37z m261 23 c0 -7 -3 -28 -6 -45 l-6 -31
-100 0 -99 0 7 38 c4 20 9 40 11 45 2 4 47 7 99 7 73 0 94 -3 94 -14z"/>
<path d="M1821 1097 c-26 -99 -30 -128 -22 -150 34 -89 299 -91 387 -3 32 32
43 62 69 181 7 33 16 68 20 78 7 16 3 18 -31 15 l-39 -3 -30 -106 c-16 -59
-37 -115 -45 -124 -50 -59 -231 -60 -253 -1 -5 12 22 130 49 219 4 14 -1 17
-34 17 l-39 0 -32 -123z"/>
<path d="M2332 1067 c-23 -86 -42 -163 -42 -171 0 -12 10 -16 35 -16 37 0 35
-2 61 103 6 26 9 27 64 27 l58 0 42 -65 42 -65 49 0 c27 0 49 3 49 6 0 4 -20
35 -46 70 l-45 64 26 0 c39 0 95 30 105 56 5 12 14 25 19 29 19 11 12 71 -10
91 -19 17 -41 19 -193 22 l-173 4 -41 -155z m329 83 c26 -14 24 -45 -3 -64
-17 -12 -49 -16 -136 -16 -103 0 -113 2 -108 18 3 9 8 29 12 45 l6 27 105 0
c57 0 113 -5 124 -10z"/>
<path d="M2960 1205 c-92 -29 -159 -113 -160 -201 0 -88 73 -129 218 -122 108
5 170 32 218 95 66 86 53 186 -29 224 -51 23 -179 25 -247 4z m212 -75 c25
-26 29 -36 24 -63 -7 -38 -31 -73 -70 -101 -21 -16 -46 -22 -105 -24 -72 -4
-79 -2 -109 23 -47 39 -39 97 20 152 34 32 65 42 141 42 63 1 71 -1 99 -29z"/>
<path d="M3352 1061 c-23 -88 -42 -165 -42 -171 0 -5 15 -10 34 -10 33 0 35 2
50 54 l16 54 132 4 c147 4 180 14 218 68 34 48 37 91 7 126 l-25 29 -174 3
-174 4 -42 -161z m339 80 c22 -18 23 -19 5 -45 -24 -38 -54 -46 -168 -46
l-100 0 7 37 c13 72 14 73 129 73 87 0 108 -3 127 -19z"/>
<path d="M3876 1203 c-3 -10 -21 -81 -41 -157 -20 -77 -39 -145 -42 -153 -4
-11 30 -13 186 -13 l191 0 10 26 c6 14 10 27 10 29 0 3 -69 6 -154 7 l-153 3
14 48 14 47 154 0 c88 0 155 4 155 9 0 5 3 16 6 25 5 14 -11 16 -145 16 -159
0 -158 -1 -145 48 6 22 9 22 159 22 130 0 154 2 159 16 17 44 16 44 -183 44
-172 0 -190 -2 -195 -17z"/>
<path d="M4513 786 c-117 -27 -175 -70 -187 -139 -6 -31 -3 -41 17 -61 31 -31
76 -43 208 -56 57 -6 112 -13 122 -16 25 -8 21 -29 -8 -42 -37 -17 -220 -15
-288 3 -32 8 -60 15 -62 15 -7 0 -55 -78 -55 -89 0 -33 311 -50 417 -23 112
29 183 103 168 178 -10 54 -68 74 -261 89 -96 8 -118 18 -90 40 27 20 211 20
289 0 32 -8 60 -15 62 -15 3 0 55 90 55 96 0 2 -17 8 -37 14 -62 18 -279 22
-350 6z"/>
<path d="M5114 786 c-126 -29 -184 -77 -184 -152 0 -39 4 -47 32 -64 33 -20
113 -35 240 -46 43 -3 82 -12 88 -19 41 -49 -204 -62 -357 -19 -17 5 -26 -2
-48 -41 -15 -25 -26 -47 -24 -49 13 -13 98 -27 184 -33 239 -14 405 58 405
177 0 65 -39 83 -222 100 -131 13 -163 24 -132 47 12 9 53 13 128 13 102 0
145 -5 203 -24 18 -6 26 0 47 37 14 24 26 47 26 50 0 29 -287 46 -386 23z"/>
<path d="M1835 689 c47 -56 85 -105 83 -109 -2 -5 -64 -53 -138 -107 l-135
-98 103 -3 103 -3 84 66 c46 36 88 65 92 65 5 0 31 -29 57 -65 l48 -65 104 0
c57 0 104 2 104 5 0 3 -36 48 -81 100 -44 52 -79 100 -77 105 2 6 57 50 122
98 66 48 121 93 124 100 3 9 -20 12 -91 12 l-94 0 -82 -65 c-46 -36 -86 -65
-91 -65 -5 0 -30 29 -56 65 l-48 65 -109 0 -108 0 86 -101z"/>
<path d="M2504 773 c-3 -10 -10 -29 -14 -43 -16 -46 -90 -331 -90 -346 0 -11
16 -14 70 -14 l69 0 11 43 c24 94 9 87 188 87 147 0 162 2 203 23 80 43 127
140 99 207 -23 56 -45 60 -300 60 -211 0 -231 -2 -236 -17z m386 -103 c9 -17
6 -25 -14 -45 -24 -24 -30 -25 -151 -25 -116 0 -126 1 -121 18 3 9 8 29 12 45
l6 27 129 0 c118 0 129 -2 139 -20z"/>
<path d="M3082 592 c-28 -109 -52 -204 -52 -210 0 -8 23 -12 69 -12 58 0 71 3
75 18 3 9 12 43 21 75 l16 57 49 0 c54 0 61 -6 115 -98 l30 -52 98 0 c53 0 97
2 97 6 0 3 -24 38 -54 78 l-54 73 46 12 c64 17 118 73 127 133 17 111 -1 118
-297 118 l-233 0 -53 -198z m436 74 c7 -37 -24 -46 -155 -46 -70 0 -123 4
-123 9 0 5 4 21 10 35 11 29 39 34 175 26 79 -4 90 -7 93 -24z"/>
<path d="M3722 593 c-29 -109 -52 -204 -52 -210 0 -10 59 -13 263 -13 l264 0
10 45 10 45 -190 0 -189 0 7 37 c4 21 9 41 11 45 3 5 90 8 194 8 104 0 191 3
194 8 2 4 7 24 11 45 l7 37 -191 0 c-105 0 -191 2 -191 4 0 3 4 16 10 30 l10
26 189 0 c104 0 192 3 195 8 2 4 7 24 11 45 l7 37 -264 0 -264 0 -52 -197z"/>
</g>
</svg>
