<?xml version="1.0" standalone="no"?>
<!DOCTYPE svg PUBLIC "-//W3C//DTD SVG 20010904//EN"
 "http://www.w3.org/TR/2001/REC-SVG-20010904/DTD/svg10.dtd">
<svg version="1.0" xmlns="http://www.w3.org/2000/svg"
 width="1920.000000pt" height="583.000000pt" viewBox="0 0 1920.000000 583.000000"
 preserveAspectRatio="xMidYMid meet">

<g transform="translate(0.000000,583.000000) scale(0.100000,-0.100000)"
fill="#000000" stroke="none">
<path d="M5935 3735 c-157 -29 -257 -85 -345 -191 -104 -126 -126 -341 -49
-485 71 -133 165 -188 504 -294 166 -52 227 -79 268 -121 33 -33 41 -61 34
-122 -4 -39 -12 -53 -46 -83 -49 -44 -103 -59 -209 -59 -132 0 -298 56 -452
151 -56 34 -76 23 -142 -78 -31 -49 -58 -95 -59 -103 -8 -45 26 -74 176 -148
172 -85 325 -117 527 -110 107 5 147 11 205 31 235 81 354 253 341 492 -6 111
-41 187 -121 262 -79 72 -185 123 -421 203 -103 34 -207 76 -231 91 -79 50
-102 114 -68 186 60 128 298 129 559 3 54 -26 85 -35 99 -30 11 4 45 51 79
109 74 130 73 135 -57 196 -111 53 -238 91 -349 105 -103 13 -155 12 -243 -5z"/>
<path d="M7646 3734 c-337 -75 -585 -323 -651 -653 -21 -101 -16 -293 9 -386
9 -33 39 -106 66 -162 86 -174 248 -322 430 -392 207 -80 453 -80 660 1 208
81 390 262 469 467 181 468 -69 974 -549 1112 -100 28 -333 36 -434 13z m309
-319 c159 -42 283 -163 341 -335 26 -77 26 -263 0 -340 -71 -211 -246 -340
-461 -340 -133 0 -244 47 -341 144 -100 101 -146 218 -146 376 0 102 13 164
53 247 56 118 171 213 298 249 64 17 186 17 256 -1z"/>
<path d="M9776 3735 c-118 -33 -237 -116 -319 -225 l-27 -35 0 106 c0 144 6
139 -188 139 -145 0 -152 -1 -166 -22 -14 -20 -16 -111 -16 -784 0 -724 1
-762 18 -777 16 -14 43 -17 175 -17 144 0 157 1 167 19 6 13 10 182 10 480 0
498 3 529 53 624 54 102 150 163 274 174 132 11 251 -40 311 -134 61 -96 62
-108 62 -638 0 -419 2 -483 16 -503 15 -21 21 -22 173 -22 109 0 161 4 169 12
9 9 12 146 12 555 0 614 -2 640 -70 779 -67 138 -187 232 -342 269 -77 18
-245 18 -312 0z"/>
<path d="M11475 3735 c-229 -50 -424 -205 -531 -420 -68 -139 -79 -192 -79
-390 0 -180 9 -232 59 -357 40 -99 88 -169 171 -253 110 -109 213 -168 376
-212 92 -25 337 -24 434 1 133 35 249 97 353 191 42 38 52 53 52 79 0 28 -11
42 -82 104 -47 41 -92 72 -104 72 -12 0 -38 -13 -58 -29 -116 -92 -208 -130
-341 -138 -149 -9 -273 34 -367 128 -54 54 -113 167 -124 237 l-7 42 575 0
c544 0 576 1 591 18 35 38 14 281 -37 429 -46 134 -93 211 -191 308 -104 104
-189 152 -327 185 -98 23 -269 26 -363 5z m337 -323 c113 -55 192 -167 222
-313 l13 -64 -410 -3 c-226 -1 -412 -1 -413 1 -8 7 28 125 55 182 50 107 138
187 244 221 26 9 76 13 133 11 79 -2 100 -7 156 -35z"/>
<path d="M13530 3735 c-126 -36 -242 -112 -330 -216 l-50 -61 0 115 c0 153 7
147 -188 147 -145 0 -152 -1 -166 -22 -14 -20 -16 -134 -16 -1023 0 -889 2
-1003 16 -1023 14 -21 21 -22 168 -22 135 0 155 2 169 18 15 17 17 57 17 363
l0 345 83 -82 c141 -138 312 -203 502 -190 330 24 584 241 677 581 18 67 21
108 22 250 0 147 -3 181 -22 254 -75 276 -247 465 -502 551 -87 30 -298 38
-380 15z m260 -342 c176 -84 273 -249 274 -468 1 -115 -14 -184 -57 -274 -84
-174 -280 -275 -468 -243 -253 43 -416 273 -396 557 15 213 142 386 327 447
42 14 79 17 155 15 88 -2 108 -6 165 -34z"/>
<path d="M17366 3734 c-141 -34 -278 -146 -354 -290 l-41 -79 -1 161 c0 143
-2 163 -18 177 -16 14 -43 17 -170 17 -145 0 -152 -1 -166 -22 -14 -20 -16
-111 -16 -785 0 -679 2 -763 16 -777 13 -13 43 -16 174 -16 143 0 160 2 169
18 5 10 11 179 13 387 4 309 7 380 21 430 67 236 225 375 456 401 88 10 91 15
91 199 0 179 -6 195 -73 194 -23 0 -68 -7 -101 -15z"/>
<path d="M15255 3733 c-86 -13 -210 -45 -288 -73 -118 -43 -120 -47 -72 -189
48 -145 55 -150 155 -116 123 42 216 57 345 58 166 0 236 -23 315 -101 63 -65
90 -129 90 -218 l0 -53 -41 14 c-99 35 -212 49 -389 49 -146 -1 -188 -4 -253
-22 -268 -73 -408 -244 -407 -497 1 -148 39 -245 134 -341 108 -108 247 -158
436 -158 185 0 333 52 447 157 33 32 63 57 67 57 3 0 6 -32 6 -71 0 -113 -6
-109 179 -109 124 0 161 3 170 14 9 10 11 156 9 563 -4 605 -3 593 -71 733
-39 81 -139 184 -222 227 -116 61 -189 75 -395 78 -102 2 -198 1 -215 -2z
m366 -898 c46 -8 108 -22 138 -30 l53 -16 -4 -82 c-6 -105 -34 -171 -98 -231
-90 -84 -203 -121 -352 -114 -75 4 -97 9 -155 39 -54 27 -73 44 -98 83 -26 43
-30 59 -29 115 1 96 40 158 129 204 92 47 257 60 416 32z"/>
</g>
</svg>
